<mxfile host="app.diagrams.net" modified="2022-12-24T12:10:25.983Z" agent="5.0 (Macintosh; Intel Mac OS X 10_15_7) AppleWebKit/605.1.15 (KHTML, like Gecko) Version/16.1 Safari/605.1.15" version="20.7.4" etag="P5cbDRIyZyUhvDM0d0S3" type="github">
  <diagram id="_hGLLhn_ufjdVcU3fIfJ" name="第 1 页">
    <mxGraphModel dx="954" dy="1086" grid="1" gridSize="10" guides="1" tooltips="1" connect="1" arrows="1" fold="1" page="1" pageScale="1" pageWidth="827" pageHeight="1169" math="0" shadow="0">
      <root>
        <mxCell id="0" />
        <mxCell id="1" parent="0" />
        <mxCell id="19_Uv0eexYUZfx2igeNT-2" value="&lt;h1&gt;Readme&lt;/h1&gt;&lt;p&gt;Power by draw.io&lt;/p&gt;" style="text;html=1;strokeColor=none;fillColor=none;spacing=5;spacingTop=-20;whiteSpace=wrap;overflow=hidden;rounded=0;" vertex="1" parent="1">
          <mxGeometry x="319" y="40" width="190" height="120" as="geometry" />
        </mxCell>
        <mxCell id="19_Uv0eexYUZfx2igeNT-5" value="" style="edgeStyle=orthogonalEdgeStyle;rounded=0;orthogonalLoop=1;jettySize=auto;html=1;" edge="1" parent="1" source="19_Uv0eexYUZfx2igeNT-3" target="19_Uv0eexYUZfx2igeNT-4">
          <mxGeometry relative="1" as="geometry" />
        </mxCell>
        <mxCell id="19_Uv0eexYUZfx2igeNT-3" value="发现drawio" style="rounded=0;whiteSpace=wrap;html=1;" vertex="1" parent="1">
          <mxGeometry x="310" y="160" width="120" height="60" as="geometry" />
        </mxCell>
        <mxCell id="19_Uv0eexYUZfx2igeNT-7" value="" style="edgeStyle=orthogonalEdgeStyle;rounded=0;orthogonalLoop=1;jettySize=auto;html=1;" edge="1" parent="1" source="19_Uv0eexYUZfx2igeNT-4" target="19_Uv0eexYUZfx2igeNT-6">
          <mxGeometry relative="1" as="geometry" />
        </mxCell>
        <mxCell id="19_Uv0eexYUZfx2igeNT-4" value="本地试用drawio" style="whiteSpace=wrap;html=1;rounded=0;" vertex="1" parent="1">
          <mxGeometry x="310" y="300" width="120" height="60" as="geometry" />
        </mxCell>
        <mxCell id="19_Uv0eexYUZfx2igeNT-9" value="" style="edgeStyle=orthogonalEdgeStyle;rounded=0;orthogonalLoop=1;jettySize=auto;html=1;" edge="1" parent="1" source="19_Uv0eexYUZfx2igeNT-6" target="19_Uv0eexYUZfx2igeNT-8">
          <mxGeometry relative="1" as="geometry" />
        </mxCell>
        <mxCell id="19_Uv0eexYUZfx2igeNT-10" value="通过" style="edgeLabel;html=1;align=center;verticalAlign=middle;resizable=0;points=[];" vertex="1" connectable="0" parent="19_Uv0eexYUZfx2igeNT-9">
          <mxGeometry x="-0.1111" y="-2" relative="1" as="geometry">
            <mxPoint as="offset" />
          </mxGeometry>
        </mxCell>
        <mxCell id="19_Uv0eexYUZfx2igeNT-6" value="本地试验结果" style="rhombus;whiteSpace=wrap;html=1;rounded=0;" vertex="1" parent="1">
          <mxGeometry x="330" y="430" width="80" height="80" as="geometry" />
        </mxCell>
        <mxCell id="19_Uv0eexYUZfx2igeNT-12" value="" style="edgeStyle=orthogonalEdgeStyle;rounded=0;orthogonalLoop=1;jettySize=auto;html=1;" edge="1" parent="1" source="19_Uv0eexYUZfx2igeNT-8" target="19_Uv0eexYUZfx2igeNT-11">
          <mxGeometry relative="1" as="geometry" />
        </mxCell>
        <mxCell id="19_Uv0eexYUZfx2igeNT-8" value="对接Github试验" style="whiteSpace=wrap;html=1;rounded=0;" vertex="1" parent="1">
          <mxGeometry x="310" y="600" width="120" height="60" as="geometry" />
        </mxCell>
        <mxCell id="19_Uv0eexYUZfx2igeNT-11" value="在线试验结果" style="rhombus;whiteSpace=wrap;html=1;rounded=0;" vertex="1" parent="1">
          <mxGeometry x="330" y="720" width="80" height="80" as="geometry" />
        </mxCell>
      </root>
    </mxGraphModel>
  </diagram>
</mxfile>
